<svg width="1440" height="900" viewBox="0 0 1440 900" fill="none" xmlns="http://www.w3.org/2000/svg">
  <rect width="1440" height="900" rx="64" fill="#F5F5F7"/>
  <rect x="104" y="80" width="1232" height="740" rx="46" fill="#111111"/>
  <rect x="132" y="124" width="1176" height="650" rx="30" fill="#FBFBFD"/>
  <rect x="132" y="124" width="1176" height="72" rx="30" fill="#FFFFFF"/>
  <circle cx="174" cy="160" r="8" fill="#FF5F57"/>
  <circle cx="202" cy="160" r="8" fill="#FFBD2E"/>
  <circle cx="230" cy="160" r="8" fill="#28C840"/>
  <text x="274" y="168" fill="#111111" font-family="-apple-system,BlinkMacSystemFont,Helvetica,Arial,sans-serif" font-size="22" font-weight="700">Lodia</text>
  <text x="1132" y="166" fill="#0071E3" font-family="-apple-system,BlinkMacSystemFont,Helvetica,Arial,sans-serif" font-size="18" font-weight="600">收益账本</text>
  <rect x="172" y="238" width="310" height="470" rx="28" fill="#FFFFFF" stroke="#E7E7EA"/>
  <text x="208" y="292" fill="#111111" font-family="-apple-system,BlinkMacSystemFont,Helvetica,Arial,sans-serif" font-size="28" font-weight="700">我的 Case 资产</text>
  <text x="208" y="334" fill="#6E6E73" font-family="-apple-system,BlinkMacSystemFont,Helvetica,Arial,sans-serif" font-size="18">本月预计收益</text>
  <text x="208" y="406" fill="#111111" font-family="-apple-system,BlinkMacSystemFont,Helvetica,Arial,sans-serif" font-size="64" font-weight="750">¥486.80</text>
  <rect x="208" y="450" width="238" height="54" rx="18" fill="#F5F5F7"/>
  <circle cx="236" cy="477" r="8" fill="#2F8A57"/>
  <text x="260" y="484" fill="#333337" font-family="-apple-system,BlinkMacSystemFont,Helvetica,Arial,sans-serif" font-size="18" font-weight="600">18 条 Case 已被采纳</text>
  <rect x="208" y="520" width="238" height="54" rx="18" fill="#F5F5F7"/>
  <circle cx="236" cy="547" r="8" fill="#0071E3"/>
  <text x="260" y="554" fill="#333337" font-family="-apple-system,BlinkMacSystemFont,Helvetica,Arial,sans-serif" font-size="18" font-weight="600">63 次评测使用</text>
  <rect x="208" y="590" width="238" height="54" rx="18" fill="#F5F5F7"/>
  <circle cx="236" cy="617" r="8" fill="#111111"/>
  <text x="260" y="624" fill="#333337" font-family="-apple-system,BlinkMacSystemFont,Helvetica,Arial,sans-serif" font-size="18" font-weight="600">214 次 API 调用</text>
  <rect x="526" y="238" width="438" height="470" rx="28" fill="#FFFFFF" stroke="#E7E7EA"/>
  <text x="562" y="292" fill="#111111" font-family="-apple-system,BlinkMacSystemFont,Helvetica,Arial,sans-serif" font-size="28" font-weight="700">处理流水线</text>
  <text x="562" y="326" fill="#6E6E73" font-family="-apple-system,BlinkMacSystemFont,Helvetica,Arial,sans-serif" font-size="18">先保护，再标注，最后出厂</text>
  <rect x="562" y="374" width="366" height="62" rx="20" fill="#F5F5F7"/>
  <text x="594" y="413" fill="#111111" font-family="-apple-system,BlinkMacSystemFont,Helvetica,Arial,sans-serif" font-size="20" font-weight="650">Raw Quarantine</text>
  <text x="826" y="413" fill="#2F8A57" font-family="-apple-system,BlinkMacSystemFont,Helvetica,Arial,sans-serif" font-size="18" font-weight="650">完成</text>
  <rect x="562" y="456" width="366" height="62" rx="20" fill="#F5F5F7"/>
  <text x="594" y="495" fill="#111111" font-family="-apple-system,BlinkMacSystemFont,Helvetica,Arial,sans-serif" font-size="20" font-weight="650">自动脱敏</text>
  <text x="826" y="495" fill="#2F8A57" font-family="-apple-system,BlinkMacSystemFont,Helvetica,Arial,sans-serif" font-size="18" font-weight="650">通过</text>
  <rect x="562" y="538" width="366" height="62" rx="20" fill="#F5F5F7"/>
  <text x="594" y="577" fill="#111111" font-family="-apple-system,BlinkMacSystemFont,Helvetica,Arial,sans-serif" font-size="20" font-weight="650">Quality Gate</text>
  <text x="826" y="577" fill="#0071E3" font-family="-apple-system,BlinkMacSystemFont,Helvetica,Arial,sans-serif" font-size="18" font-weight="650">DRL3</text>
  <rect x="562" y="620" width="366" height="62" rx="20" fill="#111111"/>
  <text x="594" y="659" fill="#FFFFFF" font-family="-apple-system,BlinkMacSystemFont,Helvetica,Arial,sans-serif" font-size="20" font-weight="650">Data Contract</text>
  <text x="802" y="659" fill="#FFFFFF" font-family="-apple-system,BlinkMacSystemFont,Helvetica,Arial,sans-serif" font-size="18" font-weight="650">可交付</text>
  <rect x="1008" y="238" width="260" height="470" rx="28" fill="#111111"/>
  <text x="1040" y="292" fill="#FFFFFF" font-family="-apple-system,BlinkMacSystemFont,Helvetica,Arial,sans-serif" font-size="28" font-weight="700">企业数据</text>
  <text x="1040" y="330" fill="#B8B8BE" font-family="-apple-system,BlinkMacSystemFont,Helvetica,Arial,sans-serif" font-size="18">可训练、可评测、可审计</text>
  <rect x="1040" y="386" width="196" height="76" rx="22" fill="#FFFFFF"/>
  <text x="1064" y="418" fill="#6E6E73" font-family="-apple-system,BlinkMacSystemFont,Helvetica,Arial,sans-serif" font-size="15">DRL4+ 候选</text>
  <text x="1064" y="446" fill="#111111" font-family="-apple-system,BlinkMacSystemFont,Helvetica,Arial,sans-serif" font-size="26" font-weight="750">1,284</text>
  <rect x="1040" y="484" width="196" height="76" rx="22" fill="#FFFFFF"/>
  <text x="1064" y="516" fill="#6E6E73" font-family="-apple-system,BlinkMacSystemFont,Helvetica,Arial,sans-serif" font-size="15">人审比例</text>
  <text x="1064" y="544" fill="#111111" font-family="-apple-system,BlinkMacSystemFont,Helvetica,Arial,sans-serif" font-size="26" font-weight="750">42%</text>
  <rect x="1040" y="582" width="196" height="76" rx="22" fill="#FFFFFF"/>
  <text x="1064" y="614" fill="#6E6E73" font-family="-apple-system,BlinkMacSystemFont,Helvetica,Arial,sans-serif" font-size="15">数据不出境</text>
  <text x="1064" y="642" fill="#111111" font-family="-apple-system,BlinkMacSystemFont,Helvetica,Arial,sans-serif" font-size="26" font-weight="750">开启</text>
  <rect x="558" y="806" width="324" height="18" rx="9" fill="#2A2A2D"/>
</svg>
